<svg width="10" height="15" viewBox="0 0 10 15" fill="none" xmlns="http://www.w3.org/2000/svg">
<path id="Secure Lock" d="M1.64835 14.3736H8.35166C9.42855 14.3736 10 13.7875 10 12.63V7.58241C10 6.42488 9.42855 5.84615 8.35166 5.84615H1.64835C0.571428 5.84615 0 6.42488 0 7.58241V12.63C0 13.7875 0.571428 14.3736 1.64835 14.3736ZM1.28205 6.41025H2.44688V3.93407C2.44688 2.08791 3.62637 1.10623 4.99634 1.10623C6.3663 1.10623 7.56047 2.08791 7.56047 3.93407V6.41025H8.71794V4.09524C8.71794 1.34066 6.91575 0 4.99634 0C3.08425 0 1.28205 1.34066 1.28205 4.09524V6.41025Z" fill="black"/>
</svg>
