<svg width="20" height="15" viewBox="0 0 20 15" fill="none" xmlns="http://www.w3.org/2000/svg">
<path id="Wi-Fi Signal Strength" d="M1.31305 6.08086L0.114253 4.86469C-0.0334251 4.70833 -0.0334251 4.51721 0.0881922 4.36954C2.12094 1.85032 5.97794 0 10 0C14.0307 0 17.8704 1.85032 19.9118 4.36954C20.0334 4.51721 20.0334 4.70833 19.8857 4.86469L18.6869 6.06349C18.5219 6.23723 18.2787 6.23723 18.1223 6.08086C16.0027 3.81357 13.1707 2.60608 10 2.60608C6.84664 2.60608 4.03207 3.80488 1.89508 6.07218C1.73003 6.24592 1.4781 6.2546 1.31305 6.08086ZM4.92682 9.71201L3.58035 8.36553C3.43267 8.20917 3.42398 8.03543 3.5456 7.87906C4.86601 6.27198 7.28967 5.06449 10 5.06449C12.7103 5.06449 15.1427 6.27198 16.4544 7.87906C16.5847 8.03543 16.576 8.22654 16.4283 8.36553L15.0819 9.70332C14.9081 9.88575 14.6823 9.88575 14.5172 9.70332C13.4574 8.54796 11.7635 7.67926 10 7.68795C8.26261 7.67926 6.55997 8.5219 5.51753 9.67726C5.3438 9.86837 5.10925 9.89443 4.92682 9.71201ZM10 14.4377C9.80889 14.4377 9.64384 14.3422 9.30504 14.0207L7.19412 11.988C7.06381 11.8577 7.02038 11.7013 7.11593 11.5623C7.6719 10.8066 8.74908 10.1464 10 10.1464C11.2249 10.1464 12.2934 10.7805 12.8667 11.5102C12.9796 11.6666 12.9536 11.8577 12.8146 11.988L10.695 14.0207C10.3562 14.3508 10.1911 14.4377 10 14.4377Z" fill="black"/>
</svg>
