<svg width="25" height="25" viewBox="0 0 25 25" fill="none" xmlns="http://www.w3.org/2000/svg">
<g id="basil:battry-half-outline">
<path id="Vector" d="M11.2396 9.58021C11.2396 9.47673 11.2191 9.37428 11.1792 9.27881C11.1393 9.18334 11.0808 9.09675 11.0071 9.02407C10.9335 8.95138 10.8461 8.89405 10.7501 8.85541C10.6542 8.81677 10.5514 8.79758 10.448 8.79896C9.01047 8.81563 7.57506 8.88229 6.14068 8.99583L5.94485 9.01146C5.72233 9.02911 5.5113 9.1175 5.34262 9.26369C5.17393 9.40988 5.05645 9.60621 5.00735 9.82396C4.61311 11.5799 4.61311 13.4014 5.00735 15.1573C5.10631 15.6042 5.48547 15.9333 5.94068 15.9708L6.12297 15.9865C7.56256 16.1052 9.00526 16.174 10.448 16.1917C10.5514 16.193 10.6542 16.1739 10.7501 16.1352C10.8461 16.0966 10.9335 16.0392 11.0071 15.9666C11.0808 15.8939 11.1393 15.8073 11.1792 15.7118C11.2191 15.6163 11.2396 15.5139 11.2396 15.4104V9.58125V9.58021Z" fill="black"/>
<path id="Vector_2" fill-rule="evenodd" clip-rule="evenodd" d="M23.177 14.5834V10.4167C23.177 9.93322 22.985 9.46955 22.6431 9.12769C22.3013 8.78582 21.8376 8.59377 21.3541 8.59377H20.677V8.53127C20.6771 7.89285 20.4364 7.2779 20.0029 6.80924C19.5694 6.34058 18.975 6.05271 18.3385 6.00314L17.0166 5.89898C13.3167 5.6105 9.5999 5.6105 5.89996 5.89898L4.49579 6.00939C3.23538 6.10731 2.20413 7.05106 1.99579 8.29793C1.5294 11.0799 1.5294 13.9201 1.99579 16.7021C2.09738 17.3078 2.39867 17.8622 2.8517 18.2769C3.30473 18.6916 3.88347 18.9428 4.49579 18.9906L5.89996 19.1C9.5999 19.3886 13.3167 19.3886 17.0166 19.1L18.3385 18.9969C18.975 18.9473 19.5694 18.6595 20.0029 18.1908C20.4364 17.7221 20.6771 17.1072 20.677 16.4688V16.4063H21.3541C21.8376 16.4063 22.3013 16.2142 22.6431 15.8723C22.985 15.5305 23.177 15.0668 23.177 14.5834ZM21.6145 10.4167V14.5834C21.6145 14.6524 21.5871 14.7187 21.5383 14.7675C21.4894 14.8163 21.4232 14.8438 21.3541 14.8438H19.8958C19.6886 14.8438 19.4899 14.9261 19.3434 15.0726C19.1969 15.2191 19.1145 15.4178 19.1145 15.625V16.4688C19.1147 16.714 19.0224 16.9502 18.8559 17.1302C18.6894 17.3102 18.4611 17.4207 18.2166 17.4396L16.8958 17.5427C13.276 17.824 9.64058 17.824 6.02079 17.5427L4.61767 17.4334C4.35283 17.4128 4.10248 17.3042 3.90653 17.1249C3.71057 16.9455 3.58028 16.7058 3.53642 16.4438C3.09869 13.8328 3.09869 11.1672 3.53642 8.55627C3.58028 8.29428 3.71057 8.05451 3.90653 7.87517C4.10248 7.69582 4.35283 7.58723 4.61767 7.56668L6.02079 7.45835C9.64058 7.1771 13.276 7.1771 16.8958 7.45835L18.2166 7.56252C18.4607 7.58139 18.6887 7.6916 18.8552 7.87116C19.0216 8.05073 19.1142 8.28644 19.1145 8.53127V9.37502C19.1145 9.80627 19.4645 10.1563 19.8958 10.1563H21.3541C21.4232 10.1563 21.4894 10.1837 21.5383 10.2325C21.5871 10.2814 21.6145 10.3476 21.6145 10.4167Z" fill="black"/>
</g>
</svg>
