<svg width="25" height="25" viewBox="0 0 25 25" fill="none" xmlns="http://www.w3.org/2000/svg">
<g id="material-symbols:wifi">
<path id="Vector" d="M12.5 21.875C11.7708 21.875 11.1545 21.6233 10.651 21.1198C10.1476 20.6163 9.89583 20 9.89583 19.2709C9.89583 18.5417 10.1476 17.9254 10.651 17.4219C11.1545 16.9184 11.7708 16.6667 12.5 16.6667C13.2292 16.6667 13.8455 16.9184 14.349 17.4219C14.8524 17.9254 15.1042 18.5417 15.1042 19.2709C15.1042 20 14.8524 20.6163 14.349 21.1198C13.8455 21.6233 13.2292 21.875 12.5 21.875ZM6.61458 15.9896L4.42708 13.75C5.45139 12.7257 6.65382 11.9143 8.03437 11.3156C9.41493 10.717 10.9035 10.4174 12.5 10.4167C14.0972 10.4167 15.5861 10.7205 16.9667 11.3281C18.3472 11.9358 19.5493 12.7604 20.5729 13.8021L18.3854 15.9896C17.6215 15.2257 16.7361 14.6268 15.7292 14.1927C14.7222 13.7587 13.6458 13.5417 12.5 13.5417C11.3542 13.5417 10.2778 13.7587 9.27083 14.1927C8.26389 14.6268 7.37847 15.2257 6.61458 15.9896ZM2.1875 11.5625L0 9.37502C1.59722 7.74308 3.46354 6.46703 5.59896 5.5469C7.73437 4.62676 10.0347 4.16669 12.5 4.16669C14.9653 4.16669 17.2656 4.62676 19.401 5.5469C21.5365 6.46703 23.4028 7.74308 25 9.37502L22.8125 11.5625C21.4757 10.2257 19.9264 9.17988 18.1646 8.42502C16.4028 7.67016 14.5146 7.29238 12.5 7.29169C10.4861 7.29169 8.59826 7.66947 6.83646 8.42502C5.07465 9.18058 3.525 10.2264 2.1875 11.5625Z" fill="black"/>
</g>
</svg>
