<svg width="40" height="21" viewBox="0 0 40 21" fill="none" xmlns="http://www.w3.org/2000/svg">
<g id="Group 13">
<path id="Secure Lock" d="M1.41449 17.3736H7.16676C8.09086 17.3736 8.58124 16.7875 8.58124 15.63V10.5824C8.58124 9.42488 8.09086 8.84615 7.16676 8.84615H1.41449C0.490356 8.84615 0 9.42488 0 10.5824V15.63C0 16.7875 0.490356 17.3736 1.41449 17.3736ZM1.10016 9.41025H2.09973V6.93407C2.09973 5.08791 3.11187 4.10623 4.28747 4.10623C5.46307 4.10623 6.48782 5.08791 6.48782 6.93407V9.41025H7.48107V7.09524C7.48107 4.34066 5.93457 3 4.28747 3C2.64666 3 1.10016 4.34066 1.10016 7.09524V9.41025Z" fill="black"/>
<g id="Union">
<path d="M30.6114 13.77L27.9319 16.4495C26.6575 17.7239 24.5914 17.7239 23.3171 16.4495C22.0427 15.1752 22.0427 13.1091 23.3171 11.8347L24.6443 10.5075L24.6443 8.49787L22.3122 10.8299C20.4829 12.6592 20.4829 15.6251 22.3122 17.4544C24.1415 19.2837 27.1074 19.2837 28.9367 17.4544L31.6163 14.7748C33.4456 12.9455 33.4456 9.97963 31.6163 8.15034C31.051 7.58506 30.3772 7.19446 29.6619 6.97854L28.4383 8.20216C29.2281 8.23448 30.0084 8.55215 30.6114 9.15517C31.8858 10.4295 31.8858 12.4956 30.6114 13.77Z" fill="black"/>
<path d="M28.1552 6.99664L30.8347 4.31707C32.1091 3.04273 34.1752 3.04273 35.4495 4.31707C36.7239 5.59142 36.7239 7.65753 35.4495 8.93188L34.1223 10.2591L34.1223 12.2687L36.4544 9.93671C38.2837 8.10741 38.2837 5.14153 36.4544 3.31224C34.6251 1.48294 31.6592 1.48294 29.8299 3.31224L27.1503 5.9918C25.321 7.8211 25.321 10.787 27.1503 12.6163C27.7156 13.1816 28.3894 13.5722 29.1047 13.7881L30.3283 12.5644C29.5385 12.5321 28.7582 12.2145 28.1552 11.6114C26.8808 10.3371 26.8808 8.27098 28.1552 6.99664Z" fill="black"/>
</g>
</g>
</svg>
