<svg width="70" height="20" viewBox="0 0 70 20" fill="none" xmlns="http://www.w3.org/2000/svg">
<g id="Group 10">
<path id="Secure Lock" d="M1.64835 17.3736H8.35166C9.42855 17.3736 10 16.7875 10 15.63V10.5824C10 9.42488 9.42855 8.84615 8.35166 8.84615H1.64835C0.571428 8.84615 0 9.42488 0 10.5824V15.63C0 16.7875 0.571428 17.3736 1.64835 17.3736ZM1.28205 9.41025H2.44688V6.93407C2.44688 5.08791 3.62637 4.10623 4.99634 4.10623C6.3663 4.10623 7.56047 5.08791 7.56047 6.93407V9.41025H8.71794V7.09524C8.71794 4.34066 6.91575 3 4.99634 3C3.08425 3 1.28205 4.34066 1.28205 7.09524V9.41025Z" fill="black"/>
<path id="Wi-Fi Signal Strength" d="M21.3131 9.08086L20.1143 7.86469C19.9666 7.70833 19.9666 7.51721 20.0882 7.36954C22.1209 4.85032 25.9779 3 30 3C34.0307 3 37.8704 4.85032 39.9118 7.36954C40.0334 7.51721 40.0334 7.70833 39.8857 7.86469L38.6869 9.06349C38.5219 9.23723 38.2787 9.23723 38.1223 9.08086C36.0027 6.81357 33.1707 5.60608 30 5.60608C26.8466 5.60608 24.0321 6.80488 21.8951 9.07218C21.73 9.24592 21.4781 9.2546 21.3131 9.08086ZM24.9268 12.712L23.5803 11.3655C23.4327 11.2092 23.424 11.0354 23.5456 10.8791C24.866 9.27198 27.2897 8.06449 30 8.06449C32.7103 8.06449 35.1427 9.27198 36.4544 10.8791C36.5847 11.0354 36.576 11.2265 36.4283 11.3655L35.0819 12.7033C34.9081 12.8857 34.6823 12.8857 34.5172 12.7033C33.4574 11.548 31.7635 10.6793 30 10.6879C28.2626 10.6793 26.56 11.5219 25.5175 12.6773C25.3438 12.8684 25.1092 12.8944 24.9268 12.712ZM30 17.4377C29.8089 17.4377 29.6438 17.3422 29.305 17.0207L27.1941 14.988C27.0638 14.8577 27.0204 14.7013 27.1159 14.5623C27.6719 13.8066 28.7491 13.1464 30 13.1464C31.2249 13.1464 32.2934 13.7805 32.8667 14.5102C32.9796 14.6666 32.9536 14.8577 32.8146 14.988L30.695 17.0207C30.3562 17.3508 30.1911 17.4377 30 17.4377Z" fill="black"/>
<g id="Options">
<path d="M54 10C54 9.44771 54.4477 9 55 9C55.5523 9 56 9.44771 56 10C56 10.5523 55.5523 11 55 11C54.4477 11 54 10.5523 54 10Z" fill="black"/>
<path d="M60 9C59.4477 9 59 9.44771 59 10C59 10.5523 59.4477 11 60 11C60.5523 11 61 10.5523 61 10C61 9.44771 60.5523 9 60 9Z" fill="black"/>
<path d="M64 10C64 9.44771 64.4477 9 65 9C65.5523 9 66 9.44771 66 10C66 10.5523 65.5523 11 65 11C64.4477 11 64 10.5523 64 10Z" fill="black"/>
<path fill-rule="evenodd" clip-rule="evenodd" d="M50 10C50 4.47715 54.4772 0 60 0C65.5228 0 70 4.47715 70 10C70 15.5228 65.5228 20 60 20C54.4772 20 50 15.5228 50 10ZM60 19C55.0294 19 51 14.9706 51 10C51 5.02944 55.0294 1 60 1C64.9706 1 69 5.02944 69 10C69 14.9706 64.9706 19 60 19Z" fill="black"/>
</g>
</g>
</svg>
